name rise43.5482peak65.4966fall89.1036.mot
datacolumns 19
datarows 35
range 13.86327600000000 13.91993900000000
endheader
time	ground_force1_vx	ground_force1_vy	ground_force1_vz	ground_force1_px	ground_force1_py	ground_force1_pz	ground_force2_vx	ground_force2_vy	ground_force2_vz	ground_force2_px	ground_force2_py	ground_force2_pz	ground_torque1_x	ground_torque1_y	ground_torque1_z	ground_torque2_x	ground_torque2_y	ground_torque2_z	
13.86327600000000	-41.05593000000000	828.69907200000000	51.71298000000000	0.09706800000000	0.00000000000000	0.09005200000000	0.00000000000000	0.00000000000000	0.00000000000000	0.00000000000000	0.00000000000000	0.00000000000000	0.00000000000000	17.11847100000000	0.00000000000000	0.00000000000000	0.00000000000000	0.00000000000000	
13.86494200000000	-41.91823200000000	827.48644400000001	51.72721500000000	0.09606500000000	0.00000000000000	0.08999500000000	-2.09174200000000	3.75641000000000	0.96843900000000	0.00000000000000	0.00000000000000	0.00000000000000	0.00000000000000	17.10358600000000	0.00000000000000	0.00000000000000	0.17509800000000	0.00000000000000	
13.86661000000000	-42.80107400000000	826.14699599999994	51.72134400000000	0.09506200000000	0.00000000000000	0.08993500000000	-3.39454800000000	7.04707800000000	1.66052000000000	0.00000000000000	0.00000000000000	0.00000000000000	0.00000000000000	17.09008200000000	0.00000000000000	0.00000000000000	0.31776800000000	0.00000000000000	
13.86828000000000	-43.70434400000000	824.67909299999997	51.69478800000000	0.09406000000000	0.00000000000000	0.08987200000000	-4.87889100000000	10.99733800000000	2.46666100000000	0.00000000000000	0.00000000000000	0.00000000000000	0.00000000000000	17.07802100000000	0.00000000000000	0.00000000000000	0.48696800000000	0.00000000000000	
13.86995600000000	-44.62784700000000	823.08111899999994	51.64700400000000	0.09305800000000	0.00000000000000	0.08980600000000	-6.50319400000000	15.55825900000000	3.36933700000000	0.00000000000000	0.00000000000000	0.00000000000000	0.00000000000000	17.06744800000000	0.00000000000000	0.00000000000000	0.67986600000000	0.00000000000000	
13.87160600000000	-45.57130000000000	821.35147700000005	51.57748800000000	0.09205600000000	0.00000000000000	0.08973700000000	-8.21467200000000	20.65108900000000	4.34476900000000	0.00000000000000	0.00000000000000	0.00000000000000	0.00000000000000	17.05840100000000	0.00000000000000	0.00000000000000	0.89228500000000	0.00000000000000	
13.87327300000000	-46.53433000000000	819.48858299999995	51.48577600000000	0.09105400000000	0.00000000000000	0.08966600000000	-9.95283700000000	26.17312300000000	5.36449700000000	0.32849700000000	0.00000000000000	-0.08044300000000	0.00000000000000	17.05090000000000	0.00000000000000	0.00000000000000	2.08057200000000	0.00000000000000	
13.87494300000000	-47.51647000000000	817.49086000000000	51.37144500000000	0.09005100000000	0.00000000000000	0.08959200000000	-11.65395700000000	32.00621900000000	6.39749400000000	0.33237400000000	0.00000000000000	-0.08065200000000	0.00000000000000	17.04495800000000	0.00000000000000	0.00000000000000	2.54048300000000	0.00000000000000	
13.87661300000000	-48.51715900000000	815.35673899999995	51.23411500000000	0.08904700000000	0.00000000000000	0.08951500000000	-13.25590800000000	38.02685400000000	7.41254500000000	0.33587200000000	0.00000000000000	-0.08086600000000	0.00000000000000	17.04057000000000	0.00000000000000	0.00000000000000	3.00904600000000	0.00000000000000	
13.87828000000000	-49.53573900000000	813.08465600000000	51.07345300000000	0.08804200000000	0.00000000000000	0.08943500000000	-14.70276400000000	44.11627900000000	8.38056600000000	0.33903400000000	0.00000000000000	-0.08108400000000	0.00000000000000	17.03772200000000	0.00000000000000	0.00000000000000	3.47409400000000	0.00000000000000	
13.87994100000000	-50.57145400000000	810.67304400000000	50.88917200000000	0.08703600000000	0.00000000000000	0.08935300000000	-15.94851300000000	50.16943600000000	9.27656100000000	0.34189500000000	0.00000000000000	-0.08130500000000	0.00000000000000	17.03638400000000	0.00000000000000	0.00000000000000	3.92456100000000	0.00000000000000	
13.88160600000000	-51.62344500000000	808.12034100000005	50.68103000000000	0.08602800000000	0.00000000000000	0.08926800000000	-16.95956900000000	56.10170100000000	10.08101500000000	0.34448500000000	0.00000000000000	-0.08153100000000	0.00000000000000	17.03651400000000	0.00000000000000	0.00000000000000	4.35115400000000	0.00000000000000	
13.88327700000000	-52.69075500000000	805.42497900000001	50.44883700000000	0.08501900000000	0.00000000000000	0.08918000000000	-17.71590900000000	61.85299300000000	10.78065400000000	0.34683300000000	0.00000000000000	-0.08176000000000	0.00000000000000	17.03805500000000	0.00000000000000	0.00000000000000	4.74679400000000	0.00000000000000	
13.88494300000000	-53.77232300000000	802.58539099999996	50.19244900000000	0.08400700000000	0.00000000000000	0.08908900000000	-18.21094800000000	67.38923000000000	11.36857000000000	0.34896100000000	0.00000000000000	-0.08199200000000	0.00000000000000	17.04093800000000	0.00000000000000	0.00000000000000	5.10679900000000	0.00000000000000	
13.88661300000000	-54.86698500000000	799.60000700000001	49.91177700000000	0.08299300000000	0.00000000000000	0.08899600000000	-18.45032000000000	72.70140400000000	11.84381400000000	0.35089000000000	0.00000000000000	-0.08222800000000	0.00000000000000	17.04507900000000	0.00000000000000	0.00000000000000	5.42883700000000	0.00000000000000	
13.88827900000000	-55.97347600000000	796.46725500000002	49.60677700000000	0.08197700000000	0.00000000000000	0.08890100000000	-18.44986000000000	77.80274100000000	12.21055700000000	0.35264000000000	0.00000000000000	-0.08246700000000	0.00000000000000	17.05038000000000	0.00000000000000	0.00000000000000	5.71269600000000	0.00000000000000	
13.88995700000000	-57.09042600000000	793.18556300000000	49.27746100000000	0.08095900000000	0.00000000000000	0.08880300000000	-18.23309100000000	82.72451599999999	12.47698500000000	0.35422700000000	0.00000000000000	-0.08270800000000	0.00000000000000	17.05673200000000	0.00000000000000	0.00000000000000	5.95991600000000	0.00000000000000	
13.89160600000000	-58.21636700000000	789.75336200000004	48.92389000000000	0.07993800000000	0.00000000000000	0.08870300000000	-17.82850600000000	87.51110500000000	12.65405200000000	0.35566600000000	0.00000000000000	-0.08295200000000	0.00000000000000	17.06401000000000	0.00000000000000	0.00000000000000	6.17334100000000	0.00000000000000	
13.89327800000000	-59.34972500000000	786.16908400000000	48.54617700000000	0.07891500000000	0.00000000000000	0.08860000000000	-17.26690400000000	92.21481100000000	12.75422200000000	0.35697100000000	0.00000000000000	-0.08319800000000	0.00000000000000	17.07207500000000	0.00000000000000	0.00000000000000	6.35664300000000	0.00000000000000	
13.89494500000000	-60.48883200000000	782.43117199999995	48.14448800000000	0.07789000000000	0.00000000000000	0.08849600000000	-16.57898700000000	96.89092100000001	12.79030600000000	0.35815400000000	0.00000000000000	-0.08344500000000	0.00000000000000	17.08077500000000	0.00000000000000	0.00000000000000	6.51386600000000	0.00000000000000	
13.89660900000000	-61.63191900000000	778.53807500000005	47.71903800000000	0.07686200000000	0.00000000000000	0.08838900000000	-15.79337200000000	101.59336200000000	12.77446900000000	0.35922600000000	0.00000000000000	-0.08369300000000	0.00000000000000	17.08994600000000	0.00000000000000	0.00000000000000	6.64902100000000	0.00000000000000	
13.89828000000000	-62.77712300000000	774.48826199999996	47.27009400000000	0.07583200000000	0.00000000000000	0.08828000000000	-14.93508600000000	106.37117499999999	12.71746100000000	0.36019700000000	0.00000000000000	-0.08394200000000	0.00000000000000	17.09941000000000	0.00000000000000	0.00000000000000	6.76575300000000	0.00000000000000	
13.89994400000000	-63.92248900000000	770.28021799999999	46.79797400000000	0.07480100000000	0.00000000000000	0.08816800000000	-14.02459900000000	111.26595399999999	12.62808100000000	0.36107700000000	0.00000000000000	-0.08419100000000	0.00000000000000	17.10897400000000	0.00000000000000	0.00000000000000	6.86710500000000	0.00000000000000	
13.90160900000000	-65.06597499999999	765.91245700000002	46.30304500000000	0.07376700000000	0.00000000000000	0.08805500000000	-13.07735100000000	116.31025699999999	12.51288900000000	0.36187300000000	0.00000000000000	-0.08444000000000	0.00000000000000	17.11843600000000	0.00000000000000	0.00000000000000	6.95536600000000	0.00000000000000	
13.90327300000000	-66.20545000000000	761.38352299999997	45.78572400000000	0.07273200000000	0.00000000000000	0.08794000000000	-12.10373500000000	121.52695300000001	12.37613200000000	0.36259400000000	0.00000000000000	-0.08468900000000	0.00000000000000	17.12757900000000	0.00000000000000	0.00000000000000	7.03201300000000	0.00000000000000	
13.90494500000000	-67.33870500000000	756.69200200000000	45.24647300000000	0.07169600000000	0.00000000000000	0.08782400000000	-11.10945300000000	126.92937000000001	12.21985600000000	0.36324700000000	0.00000000000000	-0.08493700000000	0.00000000000000	17.13617500000000	0.00000000000000	0.00000000000000	7.09772000000000	0.00000000000000	
13.90660600000000	-68.46345599999999	751.83652700000005	44.68580400000000	0.07066000000000	0.00000000000000	0.08770500000000	-10.09614500000000	132.52209500000001	12.04416600000000	0.36383700000000	0.00000000000000	-0.08518400000000	0.00000000000000	17.14398300000000	0.00000000000000	0.00000000000000	7.15243400000000	0.00000000000000	
13.90827300000000	-69.57734400000000	746.81579099999999	44.10427100000000	0.06962200000000	0.00000000000000	0.08758500000000	-9.06219900000000	138.30223799999999	11.84757400000000	0.36437100000000	0.00000000000000	-0.08542900000000	0.00000000000000	17.15075300000000	0.00000000000000	0.00000000000000	7.19549500000000	0.00000000000000	
13.90994500000000	-70.67795099999999	741.62855200000001	43.50247500000000	0.06858500000000	0.00000000000000	0.08746300000000	-8.00364900000000	144.26099600000001	11.62741100000000	0.36485300000000	0.00000000000000	-0.08567300000000	0.00000000000000	17.15622400000000	0.00000000000000	0.00000000000000	7.22577600000000	0.00000000000000	
13.91161100000000	-71.76279400000000	736.27364899999998	42.88105600000000	0.06754900000000	0.00000000000000	0.08734000000000	-6.91507200000000	150.38531699999999	11.38025100000000	0.36529000000000	0.00000000000000	-0.08591500000000	0.00000000000000	17.16012300000000	0.00000000000000	0.00000000000000	7.24184200000000	0.00000000000000	
13.91327400000000	-72.82934100000000	730.75001399999996	42.24069600000000	0.06651300000000	0.00000000000000	0.08721500000000	-5.79042300000000	156.65955299999999	11.10230700000000	0.36568400000000	0.00000000000000	-0.08615400000000	0.00000000000000	17.16217100000000	0.00000000000000	0.00000000000000	7.24209700000000	0.00000000000000	
13.91494000000000	-73.87501500000000	725.05668100000003	41.58211700000000	0.06548000000000	0.00000000000000	0.08708900000000	-4.62375600000000	163.06696099999999	10.78979400000000	0.36604000000000	0.00000000000000	-0.08639000000000	0.00000000000000	17.16207700000000	0.00000000000000	0.00000000000000	7.22492500000000	0.00000000000000	
13.91660900000000	-74.89719900000000	719.19280700000002	40.90607400000000	0.06444800000000	0.00000000000000	0.08696100000000	-3.40980400000000	169.59098299999999	10.43921600000000	0.36636200000000	0.00000000000000	-0.08662300000000	0.00000000000000	17.15954400000000	0.00000000000000	0.00000000000000	7.18880400000000	0.00000000000000	
13.91828000000000	-75.89324600000000	713.15767800000003	40.21336000000000	0.06341900000000	0.00000000000000	0.08683300000000	-2.14439200000000	176.21624000000000	10.04759300000000	0.36665200000000	0.00000000000000	-0.08685300000000	0.00000000000000	17.15426900000000	0.00000000000000	0.00000000000000	7.13239700000000	0.00000000000000	
13.91993900000000	-76.86048500000000	706.95073400000001	39.50479700000000	0.06239400000000	0.00000000000000	0.08670300000000	-0.82469400000000	182.92924700000000	9.61260600000000	0.36691400000000	0.00000000000000	-0.08707900000000	0.00000000000000	17.14594000000000	0.00000000000000	0.00000000000000	7.05461600000000	0.00000000000000	
